<svg width="32" height="32" viewBox="0 0 32 32" fill="none" xmlns="http://www.w3.org/2000/svg">
<path d="M25 11V8C25 6.89543 24.1046 6 23 6H9C7.89543 6 7 6.89543 7 8V24C7 25.1046 7.89543 26 9 26H12" stroke="#0E151C" stroke-width="2" stroke-linecap="round" stroke-linejoin="round"/>
<rect x="10" y="10" width="9" height="2" rx="1" fill="#0E151C"/>
<rect x="10" y="15" width="5" height="2" rx="1" fill="#0E151C"/>
<circle cx="21" cy="17" r="3" stroke="#0E151C" stroke-width="2"/>
<mask id="path-5-inside-1_6837_93190" fill="white">
<path d="M15 25C15 21.6863 17.6863 19 21 19V19C24.3137 19 27 21.6863 27 25V25.7234C27 26.4284 26.4284 27 25.7234 27H16.2766C15.5716 27 15 26.4284 15 25.7234V25Z"/>
</mask>
<path d="M25 25V25.7234H29V25H25ZM25.7234 25H16.2766V29H25.7234V25ZM17 25.7234V25H13V25.7234H17ZM16.2766 25C16.6761 25 17 25.3239 17 25.7234H13C13 27.533 14.467 29 16.2766 29V25ZM25 25.7234C25 25.3239 25.3239 25 25.7234 25V29C27.533 29 29 27.533 29 25.7234H25ZM21 21C23.2091 21 25 22.7909 25 25H29C29 20.5817 25.4183 17 21 17V21ZM21 17C16.5817 17 13 20.5817 13 25H17C17 22.7909 18.7909 21 21 21V17Z" fill="#0E151C" mask="url(#path-5-inside-1_6837_93190)"/>
</svg>
