<svg width="32" height="32" viewBox="0 0 32 32" fill="none" xmlns="http://www.w3.org/2000/svg">
<path fill-rule="evenodd" clip-rule="evenodd" d="M10 7H21C21.5523 7 22 7.44772 22 8V12H24V8C24 6.34315 22.6569 5 21 5H10C8.34315 5 7 6.34315 7 8V24C7 25.6569 8.34315 27 10 27H15.5V25H10C9.44772 25 9 24.5523 9 24V8C9 7.44772 9.44772 7 10 7Z" fill="#0E151C"/>
<circle cx="23" cy="12" r="1" fill="#0E151C"/>
<circle cx="15.5" cy="26" r="1" fill="#0E151C"/>
<rect x="13" y="9" width="5" height="2" rx="1" fill="#0E151C"/>
<path d="M20.3462 20.9231H25.6538C26.1636 20.9231 26.5769 21.3364 26.5769 21.8462V25.1538C26.5769 25.6636 26.1636 26.0769 25.6538 26.0769H20.3462C19.8364 26.0769 19.4231 25.6636 19.4231 25.1538V21.8462C19.4231 21.3364 19.8364 20.9231 20.3462 20.9231Z" stroke="#0E151C" stroke-width="1.84615" stroke-linecap="round"/>
<path d="M21 20.5V18C21 16.8954 21.8954 16 23 16V16C24.1046 16 25 16.8954 25 18V18" stroke="#0E151C" stroke-width="2" stroke-linecap="round"/>
</svg>
