<svg width="32" height="32" viewBox="0 0 32 32" fill="none" xmlns="http://www.w3.org/2000/svg">
<path fill-rule="evenodd" clip-rule="evenodd" d="M15.584 6.42675C15.7819 6.12989 16.2181 6.12988 16.416 6.42675L18.1315 8.99997H13.8685L15.584 6.42675ZM11.9865 11C11.9949 11.0001 12.0033 11.0001 12.0117 11H19.9884C19.9967 11.0001 20.0051 11.0001 20.0135 11H24C24.5523 11 25 11.4477 25 12V24C25 24.5523 24.5523 25 24 25H8C7.44772 25 7 24.5523 7 24L7 12C7 11.4477 7.44772 11 8 11H11.9865ZM11.4648 8.99997L13.9199 5.31735C14.9094 3.83302 17.0906 3.83302 18.0801 5.31735L20.5352 8.99997H24C25.6569 8.99997 27 10.3431 27 12V24C27 25.6568 25.6569 27 24 27H8C6.34314 27 5 25.6568 5 24V12C5 10.3431 6.34315 8.99997 8 8.99997H11.4648ZM10 15C9.44772 15 9 15.4477 9 16C9 16.5522 9.44772 17 10 17H22C22.5523 17 23 16.5522 23 16C23 15.4477 22.5523 15 22 15H10ZM9 20C9 19.4477 9.44772 19 10 19H16C16.5523 19 17 19.4477 17 20C17 20.5522 16.5523 21 16 21H10C9.44772 21 9 20.5522 9 20Z" fill="#0E151C"/>
</svg>
