<svg width="32" height="32" viewBox="0 0 32 32" fill="none" xmlns="http://www.w3.org/2000/svg">
<mask id="path-1-inside-1_6842_74567" fill="white">
<path d="M14.4679 3.90244C15.419 3.3665 16.581 3.3665 17.5321 3.90244L25.9114 8.62433C26.8928 9.1774 27.5 10.2165 27.5 11.3431V20.657C27.5 21.7835 26.8928 22.8226 25.9114 23.3757L17.5321 28.0976C16.581 28.6335 15.419 28.6335 14.4679 28.0976L6.08864 23.3757C5.10718 22.8226 4.5 21.7835 4.5 20.657V11.3431C4.5 10.2165 5.10718 9.1774 6.08863 8.62433L14.4679 3.90244Z"/>
</mask>
<path d="M6.08864 23.3757L7.0705 21.6333L6.08864 23.3757ZM14.4679 28.0976L13.4861 29.84L14.4679 28.0976ZM25.9114 23.3757L26.8932 25.1181L25.9114 23.3757ZM25.9114 8.62433L26.8932 6.88194L25.9114 8.62433ZM17.5321 3.90244L16.5502 5.64484L17.5321 3.90244ZM14.4679 3.90244L13.4861 2.16005L14.4679 3.90244ZM16.5502 5.64484L24.9295 10.3667L26.8932 6.88194L18.5139 2.16005L16.5502 5.64484ZM25.5 11.3431V20.657H29.5V11.3431H25.5ZM24.9295 21.6333L16.5502 26.3552L18.5139 29.84L26.8932 25.1181L24.9295 21.6333ZM15.4498 26.3552L7.0705 21.6333L5.10677 25.1181L13.4861 29.84L15.4498 26.3552ZM6.5 20.657V11.3431H2.5V20.657H6.5ZM7.0705 10.3667L15.4498 5.64484L13.4861 2.16005L5.10676 6.88194L7.0705 10.3667ZM6.5 11.3431C6.5 10.9385 6.71805 10.5653 7.0705 10.3667L5.10676 6.88194C3.49631 7.78946 2.5 9.49451 2.5 11.3431H6.5ZM7.0705 21.6333C6.71805 21.4347 6.5 21.0615 6.5 20.657H2.5C2.5 22.5055 3.49632 24.2106 5.10677 25.1181L7.0705 21.6333ZM16.5502 26.3552C16.2086 26.5476 15.7914 26.5476 15.4498 26.3552L13.4861 29.84C15.0467 30.7194 16.9533 30.7194 18.5139 29.84L16.5502 26.3552ZM25.5 20.657C25.5 21.0615 25.282 21.4347 24.9295 21.6333L26.8932 25.1181C28.5037 24.2106 29.5 22.5055 29.5 20.657H25.5ZM24.9295 10.3667C25.282 10.5653 25.5 10.9385 25.5 11.3431H29.5C29.5 9.49451 28.5037 7.78946 26.8932 6.88194L24.9295 10.3667ZM18.5139 2.16005C16.9533 1.28063 15.0467 1.28063 13.4861 2.16005L15.4498 5.64484C15.7914 5.45237 16.2086 5.45237 16.5502 5.64484L18.5139 2.16005Z" fill="#0E151C" mask="url(#path-1-inside-1_6842_74567)"/>
<path d="M11.513 12.5839C11.0071 12.3005 10.3672 12.481 10.0839 12.987C9.80053 13.4929 9.981 14.1328 10.487 14.4161L11.513 12.5839ZM21.513 14.4161C22.019 14.1328 22.1995 13.4929 21.9161 12.987C21.6328 12.481 20.9929 12.3005 20.487 12.5839L21.513 14.4161ZM14.95 21.5C14.95 22.0799 15.4201 22.55 16 22.55C16.5799 22.55 17.05 22.0799 17.05 21.5H14.95ZM10.487 14.4161L15.487 17.2161L16.513 15.3839L11.513 12.5839L10.487 14.4161ZM16.513 17.2161L21.513 14.4161L20.487 12.5839L15.487 15.3839L16.513 17.2161ZM14.95 16.3V21.5H17.05V16.3H14.95Z" fill="#0E151C"/>
</svg>
