<svg width="32" height="32" viewBox="0 0 32 32" fill="none" xmlns="http://www.w3.org/2000/svg">
<path fill-rule="evenodd" clip-rule="evenodd" d="M18.9234 17.2357C19.3895 17.2357 19.7673 17.6135 19.7673 18.0796V25.6742C19.7673 26.1402 19.3895 26.518 18.9234 26.518C18.4574 26.518 18.0796 26.1402 18.0796 25.6742V18.0796C18.0796 17.6135 18.4574 17.2357 18.9234 17.2357Z" fill="#0E151C"/>
<path fill-rule="evenodd" clip-rule="evenodd" d="M24.8303 17.2357C25.2964 17.2357 25.6742 17.6135 25.6742 18.0796V25.6742C25.6742 26.1402 25.2964 26.518 24.8303 26.518C24.3643 26.518 23.9865 26.1402 23.9865 25.6742V18.0796C23.9865 17.6135 24.3643 17.2357 24.8303 17.2357Z" fill="#0E151C"/>
<path fill-rule="evenodd" clip-rule="evenodd" d="M5 7.02522C5 5.90672 5.90672 5 7.02523 5H14.7042V14.7042H5V7.02522ZM7.02523 6.68769C6.83881 6.68769 6.68769 6.83881 6.68769 7.02522V13.0165H13.0165V6.68769H7.02523ZM7.02522 26.518C5.90673 26.518 5 25.6113 5 24.4928V17.2357H14.7042V26.518H7.02522ZM6.68769 24.4928C6.68769 24.6792 6.83881 24.8303 7.02522 24.8303H13.0165V18.9234H6.68769V24.4928ZM24.9147 5C26.0332 5 26.9399 5.90673 26.9399 7.02522V14.7042H17.2357V5H24.9147ZM25.2523 7.02522C25.2523 6.83881 25.1011 6.68769 24.9147 6.68769H18.9234V13.0165H25.2523V7.02522Z" fill="#0E151C"/>
</svg>
