<svg width="32" height="32" viewBox="0 0 32 32" fill="none" xmlns="http://www.w3.org/2000/svg">
<mask id="path-1-inside-1_1361_10748" fill="white">
<path d="M25.6086 23.3623L27.5689 14.1942C27.977 12.2858 26.522 10.4868 24.5705 10.4868H18.2301L19.1709 8.67908C19.8484 7.27087 19.375 5.28444 17.7597 4.44505C16.1444 3.60565 14.4989 4.01163 13.6596 5.17693L11.2119 8.57544C10.3475 9.77556 8.95873 10.4868 7.47973 10.4868H6.76656C6.3432 10.4868 6 10.83 6 11.2534V26.2334C6 26.6568 6.3432 27 6.76656 27H21.1109C23.2805 27 25.155 25.4839 25.6086 23.3623Z"/>
</mask>
<path d="M27.5689 14.1942L25.6131 13.776L25.6131 13.776L27.5689 14.1942ZM25.6086 23.3623L23.6529 22.9441L23.6529 22.9441L25.6086 23.3623ZM19.1709 8.67908L20.945 9.60237L20.9595 9.57447L20.9732 9.54613L19.1709 8.67908ZM18.2301 10.4868L16.456 9.5635L14.9346 12.4868H18.2301V10.4868ZM13.6596 5.17693L12.0367 4.00806L12.0367 4.00806L13.6596 5.17693ZM11.2119 8.57544L12.8348 9.7443L12.8348 9.7443L11.2119 8.57544ZM17.7597 4.44505L18.6819 2.67036L18.6819 2.67036L17.7597 4.44505ZM25.6131 13.776L23.6529 22.9441L27.5644 23.7805L29.5247 14.6124L25.6131 13.776ZM21.1109 25H6.76656V29H21.1109V25ZM8 26.2334V11.2534H4V26.2334H8ZM17.3968 7.75578L16.456 9.5635L20.0042 11.4101L20.945 9.60237L17.3968 7.75578ZM18.2301 12.4868H24.5705V8.4868H18.2301V12.4868ZM12.0367 4.00806L9.58898 7.40657L12.8348 9.7443L15.2825 6.34579L12.0367 4.00806ZM7.47973 8.4868H6.76656V12.4868H7.47973V8.4868ZM9.58898 7.40657C9.10047 8.08484 8.3156 8.4868 7.47973 8.4868V12.4868C9.60186 12.4868 11.5945 11.4663 12.8348 9.7443L9.58898 7.40657ZM16.8375 6.21973C17.4049 6.51459 17.6224 7.28451 17.3686 7.81202L20.9732 9.54613C22.0743 7.25723 21.3451 4.05429 18.6819 2.67036L16.8375 6.21973ZM18.6819 2.67036C16.3075 1.4365 13.5332 1.93024 12.0367 4.00806L15.2825 6.34579C15.3967 6.18721 15.5702 6.06806 15.8072 6.02112C16.0433 5.97435 16.3985 5.9916 16.8375 6.21973L18.6819 2.67036ZM6.76656 25C7.44778 25 8 25.5522 8 26.2334H4C4 27.7614 5.23863 29 6.76656 29V25ZM23.6529 22.9441C23.3965 24.1432 22.3371 25 21.1109 25V29C24.2239 29 26.9135 26.8246 27.5644 23.7805L23.6529 22.9441ZM29.5247 14.6124C30.1989 11.4591 27.7949 8.4868 24.5705 8.4868V12.4868C25.2491 12.4868 25.755 13.1124 25.6131 13.776L29.5247 14.6124ZM8 11.2534C8 11.9346 7.44778 12.4868 6.76656 12.4868V8.4868C5.23863 8.4868 4 9.72544 4 11.2534H8Z" fill="#0E151C" fill-opacity="0.4" mask="url(#path-1-inside-1_1361_10748)"/>
</svg>
