<svg width="32" height="32" viewBox="0 0 32 32" fill="none" xmlns="http://www.w3.org/2000/svg">
<mask id="path-1-inside-1_1361_10272" fill="white">
<path fill-rule="evenodd" clip-rule="evenodd" d="M16 28C22.6274 28 28 22.6274 28 16C28 9.37258 22.6274 4 16 4C9.37258 4 4 9.37258 4 16C4 18.1034 4.54117 20.0804 5.49187 21.7993C5.55246 21.9089 5.57969 22.034 5.56724 22.1586L5.2138 25.6929C5.15093 26.3216 5.67964 26.8503 6.30834 26.7875L9.84356 26.434C9.96809 26.4215 10.0932 26.4487 10.2027 26.5093C11.9212 27.4593 13.8974 28 16 28Z"/>
</mask>
<path d="M5.2138 25.6929L3.22373 25.4939L3.22373 25.4939L5.2138 25.6929ZM6.30834 26.7875L6.50735 28.7776L6.50735 28.7775L6.30834 26.7875ZM9.84356 26.434L9.64455 24.4439L9.84356 26.434ZM10.2027 26.5093L11.1703 24.7589L10.2027 26.5093ZM5.49187 21.7993L3.74172 22.7673L5.49187 21.7993ZM5.56724 22.1586L3.57716 21.9596L5.56724 22.1586ZM26 16C26 21.5228 21.5228 26 16 26V30C23.732 30 30 23.732 30 16H26ZM16 6C21.5228 6 26 10.4772 26 16H30C30 8.26801 23.732 2 16 2V6ZM6 16C6 10.4772 10.4772 6 16 6V2C8.26801 2 2 8.26801 2 16H6ZM7.24203 20.8314C6.45102 19.4012 6 17.7563 6 16H2C2 18.4505 2.63132 20.7596 3.74172 22.7673L7.24203 20.8314ZM7.20388 25.8919L7.55731 22.3576L3.57716 21.9596L3.22373 25.4939L7.20388 25.8919ZM6.10934 24.7974C6.73804 24.7345 7.26675 25.2632 7.20388 25.8919L3.22373 25.4939C3.03512 27.38 4.62124 28.9662 6.50735 28.7776L6.10934 24.7974ZM9.64455 24.4439L6.10934 24.7974L6.50735 28.7775L10.0426 28.424L9.64455 24.4439ZM16 26C14.2444 26 12.6001 25.5493 11.1703 24.7589L9.23509 28.2596C11.2422 29.3692 13.5504 30 16 30V26ZM10.0426 28.424C9.74651 28.4536 9.46637 28.3875 9.23509 28.2596L11.1703 24.7589C10.72 24.51 10.1897 24.3894 9.64455 24.4439L10.0426 28.424ZM3.74172 22.7673C3.61377 22.536 3.54755 22.2557 3.57716 21.9596L7.55731 22.3576C7.61184 21.8123 7.49116 21.2818 7.24203 20.8314L3.74172 22.7673Z" fill="#0E151C" fill-opacity="0.4" mask="url(#path-1-inside-1_1361_10272)"/>
</svg>
